{"title":"Chicago - (Richard Gere - Renee Zellweger)(2002)Dvd Rip [Divx-EN","uid":5087666,"size":1467613434,"categoryP":"video","categoryS":"movies","magnet":"?xt=urn:btih:be5b02ff56e9aa0cf30240d1c34ae09d10957182&amp;dn=Chicago+-+%28Richard+Gere+-+Renee+Zellweger%29%282002%29Dvd+Rip+%5BDivx-EN&amp;tr=udp%3A%2F%2Ftracker.openbittorrent.com%3A80&amp;tr=udp%3A%2F%2Fopen.demonii.com%3A1337&amp;tr=udp%3A%2F%2Ftracker.coppersurfer.tk%3A6969&amp;tr=udp%3A%2F%2Fexodus.desync.com%3A6969","seeders":1,"leechers":0,"uploader":"boichiha1","files":3,"time":1252853609,"description":"Genre:\nComedy | Crime | Drama | Musical\n\n\nChicago - (Richard Gere - Renee Zellweger)(2002)Dvd Rip [Divx-ENG]\n\n\nStarring\n\nTaye Diggs ... Bandleader\nRenÃƒÂ©e Zellweger ... Roxie Hart\nCliff Saunders ... Stage Manager\nCatherine Zeta-Jones ... Velma Kelly\nRichard Gere ... Billy Flynn\nQueen Latifah\n... Matron Mama Morton\nJohn C. Reilly ... Amos Hart\nDominic West ... Fred Casely\nChristine Baranski ... Mary Sunshine\nJayne Eastwood ... Mrs. Borusewicz\nBruce Beaton ... Police Photographer\nRoman Podhora ... Sergeant Fogarty\nColm Feore ... Harrison\nRob Smith ... Newspaper Photographer\nSean Wayne Doyle ... Reporter\n\nGeneral\nComplete name : Chicago.avi\nFormat : AVI\nFormat/Info : Audio Video Interleave\nFile size : 1.37 GiB\nDuration : 1h 48mn\nOverall bit rate : 1 799 Kbps\nWriting application : VirtualDubMod 1.5.4.1 (build 2178/release)\nWriting library : VirtualDubMod build 2178/release\n\nVideo\nID : 0\nFormat : MPEG-4 Visual\nFormat settings, BVOP : Yes\nFormat settings, QPel : No\nFormat settings, GMC : No warppoints\nFormat settings, Matrix : Default (H.263)\nMuxing mode : Packed bitstream\nCodec ID : DX50\nCodec ID/Hint : DivX 5\nDuration : 1h 48mn\nBit rate : 1 344 Kbps\nWidth : 704 pixels\nHeight : 384 pixels\nDisplay aspect ratio : 16/9\nFrame rate : 25.000 fps\nResolution : 24 bits\nColorimetry : 4:2:0\nScan type : Progressive\nBits/(Pixel*Frame) : 0.199\nStream size : 1.02 GiB (75%)\nWriting library : DivX 6.8.5\n\nAudio\nID : 1\nFormat : AC-3\nFormat/Info : Audio Coding 3\nCodec ID : 2000\nDuration : 1h 48mn\nBit rate mode : Constant\nBit rate : 448 Kbps\nChannel(s) : 6 channels\nChannel positions : Front: L C R, Surround: L R, LFE\nSampling rate : 48.0 KHz\nStream size : 349 MiB (25%)\nAlignment : Split accross interleaves\nInterleave, duration : 96 ms (2.40 video frames)\nInterleave, preload duration : 96 ms\nLanguage : English\n\n\nIMDB Rating =\n\n7.3/10\n\n76,759 votes\n\n\nLink to IMDB HERE\n\n &lt;a href=&quot;\nhttp://www.imdb.com/title/tt0299658/&quot; rel=&quot;nofollow&quot; target=&quot;_NEW&quot;&gt;\nhttp://www.imdb.com/title/tt0299658/&lt;/a&gt;\n\nPlot\n\nMurderesses Velma Kelly (a chanteuse and tease who killed her husband and sister after finding them in bed together) and Roxie Hart (who killed her boyfriend when she discovered he wasn't going to make her a star) find themselves on death row together and fight for the fame that will keep them from the gallows in 1920s Chicago.\n\nReview From IMDB\n\nOne of the very Broadway crossovers in recent memory to actually do its job and entertain, and boy, does it ever! Chicago sucks you in at minute one and you don't really come up for air until a half hour has passed. Now thats a good movie. Musicals, theater etc are hardly my cup of tea, and Hollywood's opium dream renditions are even less in my scope of enjoyment. Why Chicago works where most of them have flopped utterly, I am not sure but would have to bet its down to direction. Chicago's song and dance segments are cut MTV style, but, Marshall seems to have almost perfected this technique to somehow capture the in-theater dramatic 'zowie' feeling that almost never makes it from stage to screen. While many argue Chicago owe its success at the Oscars to the drubbing Moulin Rouge took (quite deservedly) the year before, I happen to disagree and believe that for once the Academy actually got it right. The cast is fantastic. Sure you can nitpick about Gere being too nasally and too Gere, and maybe Zellwegger's drunken bridesmaid dancing could have used a couple more takes, but the final product even with those bizarre ingredients is one of the most enjoyable experiences to come out of Hollywood, maybe ever?\n","torrent":{"xt":"urn:btih:be5b02ff56e9aa0cf30240d1c34ae09d10957182","amp;dn":"Chicago+-+%28Richard+Gere+-+Renee+Zellweger%29%282002%29Dvd+Rip+%5BDivx-EN","amp;tr":["udp%3A%2F%2Ftracker.openbittorrent.com%3A80","udp%3A%2F%2Fopen.demonii.com%3A1337","udp%3A%2F%2Ftracker.coppersurfer.tk%3A6969","udp%3A%2F%2Fexodus.desync.com%3A6969"],"infoHash":"be5b02ff56e9aa0cf30240d1c34ae09d10957182","infoHashBuffer":{"type":"Buffer","data":[190,91,2,255,86,233,170,12,243,2,64,209,195,74,224,157,16,149,113,130]},"announce":[],"urlList":[]}}